<svg data-v-423bf9ae="" xmlns="http://www.w3.org/2000/svg" viewBox="0 0 255 90" class="iconLeftSlogan"><!----><!----><!----><g data-v-423bf9ae="" id="b40f3b94-1b13-41e6-97d4-85675f14be31" fill="#3E2B18" transform="matrix(6.493506654355598,0,0,6.493506654355598,92.28529504603523,-29.480519963066797)"><path d="M0.91 13.78L2.55 13.78L2.55 10.70C2.55 9.69 2.38 7.53 2.28 6.55L2.34 6.55L3.07 9.07L3.93 11.31L4.86 11.31L5.71 9.07L6.45 6.55L6.51 6.55C6.41 7.53 6.24 9.69 6.24 10.70L6.24 13.78L7.91 13.78L7.91 4.54L5.84 4.54L4.80 7.83L4.45 9.11L4.41 9.11L4.05 7.83L2.98 4.54L0.91 4.54ZM9.86 13.78L16.18 13.78L16.18 12.04L14.06 12.04L14.06 6.27L16.18 6.27L16.18 4.54L9.86 4.54L9.86 6.27L11.98 6.27L11.98 12.04L9.86 12.04ZM18.13 13.78L20.72 13.78C23.25 13.78 25.00 12.28 25.00 9.11C25.00 5.95 23.25 4.54 20.61 4.54L18.13 4.54ZM20.20 12.11L20.20 6.20L20.50 6.20C21.92 6.20 22.89 6.90 22.89 9.11C22.89 11.33 21.92 12.11 20.50 12.11Z"></path></g><defs data-v-423bf9ae=""><linearGradient data-v-423bf9ae="" gradientTransform="rotate(25)" id="c518674e-f299-4ead-8a01-bede92c59787" x1="0%" y1="0%" x2="100%" y2="0%"><stop data-v-423bf9ae="" offset="0%" style="stop-color: rgb(145, 60, 0); stop-opacity: 1;"></stop><stop data-v-423bf9ae="" offset="100%" style="stop-color: rgb(217, 173, 118); stop-opacity: 1;"></stop></linearGradient></defs><g data-v-423bf9ae="" id="a55b4708-8bfe-40db-9550-c5b45a710271" transform="matrix(1.1997445612216555,0,0,1.1997445612216555,-21.71738751173325,-14.433693451710248)" stroke="none" fill="url(#c518674e-f299-4ead-8a01-bede92c59787)"><path d="M36.4 57.2V61c0 2 1.6 3.7 3.6 3.9V77c0 5.6 4.6 10.2 10.2 10.2S60.4 82.6 60.4 77v-7.8c0-4.5 3.7-8.2 8.2-8.2 4.3 0 7.8 3.4 8.2 7.6-2.5.2-4.4 2.3-4.4 4.8v1.1c0 2.7 2.2 4.9 4.9 4.9h1.1c2.7 0 4.9-2.2 4.9-4.9v-1.1c0-2.6-2-4.6-4.5-4.9-.4-5.3-4.8-9.5-10.2-9.5-5.6 0-10.2 4.6-10.2 10.2V77c0 4.5-3.7 8.2-8.2 8.2S42 81.5 42 77V64.9c2-.2 3.5-1.8 3.5-3.9v-3.7c4.5-.8 8.7-3 12.1-6.3 4.3-4.3 6.7-10.1 6.7-16.2s-2.4-11.9-6.7-16.2l.1-1.3c.3-2.4-1.4-4.6-3.9-4.9-2.4-.3-4.6 1.5-4.9 3.9l-.2 2.1c-.1 1.2.2 2.3.9 3.2.7.9 1.8 1.5 2.9 1.6h.5c1 0 1.9-.3 2.7-1 .5-.4.9-.9 1.2-1.5 3.4 3.8 5.3 8.7 5.3 13.9 0 5.6-2.2 10.9-6.1 14.8-8.2 8.2-21.5 8.2-29.7 0-7.8-7.8-8.1-20.2-1.1-28.5.8 1.3 2.2 2.1 3.7 2.1h.5c1.2-.1 2.2-.7 2.9-1.6s1.1-2.1.9-3.2l-.2-2.1c-.3-2.4-2.5-4.1-4.9-3.9-2.4.3-4.1 2.5-3.9 4.9l.2 1.7c-8.6 9-8.5 23.3.3 32.1 3.5 3.3 7.4 5.4 11.6 6.3zm41.9 13.3c1.6 0 2.9 1.3 2.9 2.9v1.1c0 1.6-1.3 2.9-2.9 2.9h-1.1c-1.6 0-2.9-1.3-2.9-2.9v-1.1c0-1.6 1.3-2.9 2.9-2.9h1.1zM55.7 17l-.2 2.1c-.1.6-.4 1.2-.9 1.6s-1.1.6-1.8.5c-.6-.1-1.2-.4-1.6-.9-.4-.5-.6-1.1-.5-1.8l.2-2.1c.1-1.2 1.2-2.1 2.4-2.1h.3c1.3.2 2.3 1.4 2.1 2.7zM38.4 57.6c1 .1 1.9.2 2.9.2.7 0 1.5 0 2.2-.1V61c0 1-.8 1.9-1.9 1.9h-1.3c-1 0-1.9-.8-1.9-1.9v-3.4zm-9.7-43.2h.3c.5 0 1.1.2 1.5.5.5.4.8 1 .9 1.6l.2 2.1c.1.6-.1 1.3-.5 1.8s-1 .8-1.6.9c-1.3.1-2.5-.8-2.7-2.1l-.2-2.2c-.2-1.3.8-2.5 2.1-2.6z"></path></g><!----><g data-v-423bf9ae="" id="0b75792b-8ee6-4965-8776-f79f7dec14f6" fill="#3E2B18" transform="matrix(0.3648479913568673,0,0,0.3648479913568673,97.95358094373884,58.27426776955779)"><path d="M7.20 16.21L7.20 16.21L7.20 16.21Q7.17 16.23 7.14 16.23L7.14 16.23L7.14 16.23Q7.11 16.23 7.03 16.23L7.03 16.23L7.03 16.23Q6.83 16.23 6.57 16.16L6.57 16.16L6.57 16.16Q6.31 16.10 6.07 16.01L6.07 16.01L6.07 16.01Q5.82 15.92 5.65 15.81L5.65 15.81L5.65 15.81Q5.47 15.69 5.43 15.61L5.43 15.61L5.43 15.61Q5.42 15.41 5.42 15.20L5.42 15.20L5.42 15.20Q5.42 14.99 5.42 14.80L5.42 14.80L5.42 14.80Q5.42 13.23 5.65 11.52L5.65 11.52L5.65 11.52Q5.88 9.81 6.41 7.83L6.41 7.83L6.41 7.83Q6.47 7.63 6.53 7.33L6.53 7.33L6.53 7.33Q6.59 7.03 6.66 6.68L6.66 6.68L6.66 6.68Q6.33 6.94 5.87 7.53L5.87 7.53L5.87 7.53Q5.40 8.11 4.89 8.90L4.89 8.90L4.89 8.90Q4.38 9.69 3.87 10.63L3.87 10.63L3.87 10.63Q3.36 11.58 2.94 12.55L2.94 12.55L2.94 12.55Q2.52 13.52 2.22 14.48L2.22 14.48L2.22 14.48Q1.92 15.43 1.85 16.24L1.85 16.24L1.85 16.24Q1.18 16.04 0.92 15.85L0.92 15.85L0.92 15.85Q0.66 15.65 0.66 15.37L0.66 15.37L0.66 15.37Q0.66 15.12 0.81 14.66L0.81 14.66L0.81 14.66Q0.97 14.20 1.25 13.57L1.25 13.57L1.25 13.57Q1.53 12.94 1.93 12.16L1.93 12.16L1.93 12.16Q2.34 11.38 2.83 10.49L2.83 10.49L2.83 10.49Q3.39 9.46 3.93 8.57L3.93 8.57L3.93 8.57Q4.47 7.67 4.98 6.94L4.98 6.94L4.98 6.94Q5.50 6.22 6.00 5.68L6.00 5.68L6.00 5.68Q6.50 5.15 6.99 4.87L6.99 4.87L6.99 4.87Q7.18 4.87 7.51 4.97L7.51 4.97L7.51 4.97Q7.84 5.07 8.15 5.21L8.15 5.21L8.15 5.21Q8.47 5.35 8.71 5.49L8.71 5.49L8.71 5.49Q8.96 5.64 8.99 5.74L8.99 5.74L8.99 5.74Q8.79 6.13 8.53 6.92L8.53 6.92L8.53 6.92Q8.26 7.70 7.99 8.69L7.99 8.69L7.99 8.69Q7.71 9.69 7.47 10.80L7.47 10.80L7.47 10.80Q7.22 11.91 7.08 12.94L7.08 12.94L7.08 12.94Q7.41 12.17 7.83 11.33L7.83 11.33L7.83 11.33Q8.26 10.50 8.74 9.68L8.74 9.68L8.74 9.68Q9.21 8.86 9.71 8.09L9.71 8.09L9.71 8.09Q10.21 7.32 10.68 6.69L10.68 6.69L10.68 6.69Q11.16 6.05 11.57 5.57L11.57 5.57L11.57 5.57Q11.98 5.10 12.31 4.87L12.31 4.87L12.31 4.87Q12.50 4.87 12.83 4.97L12.83 4.97L12.83 4.97Q13.16 5.07 13.47 5.21L13.47 5.21L13.47 5.21Q13.79 5.35 14.04 5.49L14.04 5.49L14.04 5.49Q14.28 5.64 14.31 5.74L14.31 5.74L14.31 5.74Q13.86 6.54 13.52 7.69L13.52 7.69L13.52 7.69Q13.19 8.83 12.96 10.09L12.96 10.09L12.96 10.09Q12.73 11.35 12.61 12.59L12.61 12.59L12.61 12.59Q12.49 13.83 12.49 14.81L12.49 14.81L12.49 14.81Q12.49 15.13 12.49 15.48L12.49 15.48L12.49 15.48Q12.49 15.83 12.52 16.21L12.52 16.21L12.52 16.21Q12.32 16.21 12.05 16.16L12.05 16.16L12.05 16.16Q11.77 16.11 11.52 16.03L11.52 16.03L11.52 16.03Q11.26 15.95 11.05 15.84L11.05 15.84L11.05 15.84Q10.84 15.74 10.75 15.61L10.75 15.61L10.75 15.61Q10.74 15.41 10.74 15.20L10.74 15.20L10.74 15.20Q10.74 14.99 10.74 14.80L10.74 14.80L10.74 14.80Q10.74 13.23 10.97 11.52L10.97 11.52L10.97 11.52Q11.20 9.81 11.73 7.83L11.73 7.83L11.73 7.83Q11.79 7.63 11.86 7.29L11.86 7.29L11.86 7.29Q11.93 6.96 12.00 6.59L12.00 6.59L12.00 6.59Q11.61 6.79 11.11 7.34L11.11 7.34L11.11 7.34Q10.61 7.90 10.10 8.69L10.10 8.69L10.10 8.69Q9.59 9.48 9.09 10.44L9.09 10.44L9.09 10.44Q8.60 11.41 8.20 12.41L8.20 12.41L8.20 12.41Q7.80 13.41 7.53 14.40L7.53 14.40L7.53 14.40Q7.25 15.39 7.20 16.21ZM27.26 9.21L27.26 9.21L27.26 9.21Q27.72 9.21 27.98 9.46L27.98 9.46L27.98 9.46Q28.24 9.72 28.24 10.16L28.24 10.16L28.24 10.16Q28.24 10.28 28.22 10.39L28.22 10.39L28.22 10.39Q28.20 10.51 28.17 10.60L28.17 10.60L28.17 10.60Q27.99 10.57 27.76 10.55L27.76 10.55L27.76 10.55Q27.54 10.53 27.23 10.53L27.23 10.53L27.23 10.53Q26.63 10.53 26.01 10.63L26.01 10.63L26.01 10.63Q25.40 10.74 24.84 10.81L24.84 10.81L24.84 10.81Q24.51 11.55 24.25 12.24L24.25 12.24L24.25 12.24Q23.98 12.94 23.79 13.51L23.79 13.51L23.79 13.51Q23.60 14.08 23.50 14.50L23.50 14.50L23.50 14.50Q23.39 14.92 23.38 15.13L23.38 15.13L23.38 15.13Q24.51 14.90 25.67 14.73L25.67 14.73L25.67 14.73Q26.82 14.56 28.10 14.48L28.10 14.48L28.10 14.48Q28.25 14.71 28.36 14.99L28.36 14.99L28.36 14.99Q28.46 15.27 28.46 15.60L28.46 15.60L28.46 15.60Q28.46 15.68 28.46 15.78L28.46 15.78L28.46 15.78Q28.46 15.88 28.43 15.97L28.43 15.97L28.43 15.97Q28.04 15.96 27.61 15.95L27.61 15.95L27.61 15.95Q27.17 15.95 26.47 15.95L26.47 15.95L26.47 15.95Q26.01 15.95 25.60 15.97L25.60 15.97L25.60 15.97Q25.19 15.99 24.77 16.03L24.77 16.03L24.77 16.03Q24.35 16.07 23.88 16.14L23.88 16.14L23.88 16.14Q23.41 16.21 22.82 16.31L22.82 16.31L22.82 16.31Q22.18 16.06 21.57 15.08L21.57 15.08L21.57 15.08Q21.81 14.57 22.24 13.54L22.24 13.54L22.24 13.54Q22.67 12.52 23.32 10.79L23.32 10.79L23.32 10.79Q22.69 10.60 22.50 10.09L22.50 10.09L22.50 10.09Q22.57 10.02 22.90 9.92L22.90 9.92L22.90 9.92Q23.24 9.81 23.73 9.70L23.73 9.70L23.73 9.70Q23.94 9.16 24.09 8.75L24.09 8.75L24.09 8.75Q24.23 8.34 24.35 7.99L24.35 7.99L24.35 7.99Q24.46 7.63 24.55 7.29L24.55 7.29L24.55 7.29Q24.64 6.94 24.72 6.54L24.72 6.54L24.72 6.54Q24.23 6.51 23.95 6.27L23.95 6.27L23.95 6.27Q23.67 6.02 23.67 5.63L23.67 5.63L23.67 5.63Q23.67 5.52 23.71 5.36L23.71 5.36L23.71 5.36Q23.74 5.21 23.79 5.10L23.79 5.10L23.79 5.10Q24.07 5.14 24.33 5.15L24.33 5.15L24.33 5.15Q24.58 5.17 25.00 5.17L25.00 5.17L25.00 5.17Q25.89 5.17 26.66 5.12L26.66 5.12L26.66 5.12Q27.43 5.07 28.05 5.01L28.05 5.01L28.05 5.01Q28.67 4.96 29.12 4.91L29.12 4.91L29.12 4.91Q29.57 4.86 29.81 4.86L29.81 4.86L29.81 4.86Q30.13 4.86 30.38 5.19L30.38 5.19L30.38 5.19Q30.63 5.53 30.76 6.15L30.76 6.15L30.76 6.15Q30.32 6.10 30.05 6.09L30.05 6.09L30.05 6.09Q29.78 6.08 29.57 6.08L29.57 6.08L29.57 6.08Q28.80 6.08 28.16 6.15L28.16 6.15L28.16 6.15Q27.52 6.23 26.94 6.31L26.94 6.31L26.94 6.31Q26.85 6.44 26.75 6.64L26.75 6.64L26.75 6.64Q26.64 6.83 26.47 7.18L26.47 7.18L26.47 7.18Q26.31 7.53 26.06 8.06L26.06 8.06L26.06 8.06Q25.82 8.60 25.47 9.39L25.47 9.39L25.47 9.39Q26.00 9.31 26.47 9.26L26.47 9.26L26.47 9.26Q26.94 9.21 27.26 9.21ZM37.94 14.45L37.94 14.45L37.94 14.45Q38.15 13.99 38.44 13.26L38.44 13.26L38.44 13.26Q38.74 12.53 39.06 11.68L39.06 11.68L39.06 11.68Q39.38 10.84 39.72 9.95L39.72 9.95L39.72 9.95Q40.05 9.06 40.35 8.26L40.35 8.26L40.35 8.26Q40.64 7.46 40.86 6.83L40.86 6.83L40.86 6.83Q41.08 6.20 41.17 5.87L41.17 5.87L41.17 5.87Q40.29 6.23 39.66 6.97L39.66 6.97L39.66 6.97Q39.03 7.71 38.71 8.83L38.71 8.83L38.71 8.83Q38.39 8.72 38.12 8.43L38.12 8.43L38.12 8.43Q37.86 8.15 37.77 7.71L37.77 7.71L37.77 7.71Q37.91 7.07 38.30 6.54L38.30 6.54L38.30 6.54Q38.68 6.01 39.27 5.63L39.27 5.63L39.27 5.63Q39.86 5.25 40.63 5.05L40.63 5.05L40.63 5.05Q41.40 4.84 42.28 4.84L42.28 4.84L42.28 4.84Q43.40 4.84 44.34 5.17L44.34 5.17L44.34 5.17Q45.28 5.50 45.95 6.09L45.95 6.09L45.95 6.09Q46.62 6.68 47.00 7.50L47.00 7.50L47.00 7.50Q47.38 8.33 47.38 9.34L47.38 9.34L47.38 9.34Q47.38 10.71 46.87 11.96L46.87 11.96L46.87 11.96Q46.37 13.20 45.51 14.15L45.51 14.15L45.51 14.15Q44.65 15.11 43.51 15.67L43.51 15.67L43.51 15.67Q42.38 16.24 41.13 16.24L41.13 16.24L41.13 16.24Q39.98 16.24 39.16 15.79L39.16 15.79L39.16 15.79Q38.35 15.33 37.94 14.45ZM42.88 5.54L42.88 5.54L42.88 5.54Q42.18 5.54 41.55 5.74L41.55 5.74L41.55 5.74Q42.17 5.96 42.57 6.21L42.57 6.21L42.57 6.21Q42.98 6.45 43.13 6.59L43.13 6.59L43.13 6.59Q43.02 6.75 42.80 7.14L42.80 7.14L42.80 7.14Q42.59 7.53 42.30 8.09L42.30 8.09L42.30 8.09Q42.01 8.65 41.69 9.32L41.69 9.32L41.69 9.32Q41.37 9.98 41.06 10.68L41.06 10.68L41.06 10.68Q40.26 12.46 39.91 13.48L39.91 13.48L39.91 13.48Q39.55 14.50 39.55 14.90L39.55 14.90L39.55 14.90Q39.75 14.97 40.03 14.99L40.03 14.99L40.03 14.99Q40.31 15.02 40.63 15.02L40.63 15.02L40.63 15.02Q41.76 15.02 42.78 14.50L42.78 14.50L42.78 14.50Q43.79 13.97 44.55 13.09L44.55 13.09L44.55 13.09Q45.32 12.21 45.76 11.04L45.76 11.04L45.76 11.04Q46.20 9.87 46.20 8.58L46.20 8.58L46.20 8.58Q46.20 7.14 45.30 6.34L45.30 6.34L45.30 6.34Q44.41 5.54 42.88 5.54ZM55.31 14.38L55.31 14.38L55.31 14.38Q55.31 13.87 55.48 13.07L55.48 13.07L55.48 13.07Q55.64 12.26 55.90 11.33L55.90 11.33L55.90 11.33Q56.15 10.40 56.49 9.43L56.49 9.43L56.49 9.43Q56.83 8.46 57.18 7.60L57.18 7.60L57.18 7.60Q57.53 6.75 57.86 6.10L57.86 6.10L57.86 6.10Q58.20 5.46 58.46 5.18L58.46 5.18L58.46 5.18Q58.60 5.19 58.84 5.29L58.84 5.29L58.84 5.29Q59.07 5.38 59.30 5.50L59.30 5.50L59.30 5.50Q59.54 5.63 59.74 5.78L59.74 5.78L59.74 5.78Q59.93 5.92 59.99 6.05L59.99 6.05L59.99 6.05Q59.58 6.41 59.19 7.15L59.19 7.15L59.19 7.15Q58.79 7.88 58.42 8.82L58.42 8.82L58.42 8.82Q58.04 9.76 57.72 10.80L57.72 10.80L57.72 10.80Q57.40 11.84 57.16 12.82L57.16 12.82L57.16 12.82Q56.92 13.80 56.79 14.64L56.79 14.64L56.79 14.64Q56.66 15.48 56.66 16.00L56.66 16.00L56.66 16.00Q56.66 16.24 56.70 16.30L56.70 16.30L56.70 16.30Q56.39 16.28 56.25 16.19L56.25 16.19L56.25 16.19Q56.11 16.10 56.04 16.00L56.04 16.00L56.04 16.00Q55.96 15.89 55.90 15.79L55.90 15.79L55.90 15.79Q55.83 15.68 55.71 15.62L55.71 15.62L55.71 15.62Q55.61 15.58 55.54 15.43L55.54 15.43L55.54 15.43Q55.47 15.27 55.42 15.09L55.42 15.09L55.42 15.09Q55.37 14.90 55.34 14.70L55.34 14.70L55.34 14.70Q55.31 14.50 55.31 14.38ZM66.88 12.43L66.88 12.43L66.88 12.43Q66.88 11.45 67.11 10.51L67.11 10.51L67.11 10.51Q67.34 9.56 67.76 8.71L67.76 8.71L67.76 8.71Q68.18 7.87 68.76 7.16L68.76 7.16L68.76 7.16Q69.34 6.45 70.03 5.94L70.03 5.94L70.03 5.94Q70.73 5.42 71.51 5.13L71.51 5.13L71.51 5.13Q72.30 4.84 73.12 4.84L73.12 4.84L73.12 4.84Q74.09 4.84 74.63 5.25L74.63 5.25L74.63 5.25Q75.17 5.66 75.17 6.38L75.17 6.38L75.17 6.38Q75.17 6.66 75.09 6.96L75.09 6.96L75.09 6.96Q75.01 7.25 74.86 7.54L74.86 7.54L74.86 7.54Q74.72 7.83 74.52 8.09L74.52 8.09L74.52 8.09Q74.33 8.36 74.09 8.55L74.09 8.55L74.09 8.55Q73.72 8.50 73.46 8.22L73.46 8.22L73.46 8.22Q73.19 7.95 73.12 7.59L73.12 7.59L73.12 7.59Q73.61 7.18 73.90 6.74L73.90 6.74L73.90 6.74Q74.19 6.30 74.19 5.94L74.19 5.94L74.19 5.94Q74.19 5.32 73.42 5.32L73.42 5.32L73.42 5.32Q73.09 5.32 72.75 5.45L72.75 5.45L72.75 5.45Q72.41 5.59 72.06 5.82L72.06 5.82L72.06 5.82Q71.71 6.06 71.38 6.40L71.38 6.40L71.38 6.40Q71.05 6.73 70.77 7.14L70.77 7.14L70.77 7.14Q68.82 9.94 68.82 12.87L68.82 12.87L68.82 12.87Q68.82 13.90 69.15 14.53L69.15 14.53L69.15 14.53Q69.47 15.16 70 15.27L70 15.27L70 15.27Q70.60 15.13 71.53 14.50L71.53 14.50L71.53 14.50Q72.45 13.87 73.54 12.87L73.54 12.87L73.54 12.87Q73.68 13.01 73.71 13.16L73.71 13.16L73.71 13.16Q73.30 13.69 72.87 14.18L72.87 14.18L72.87 14.18Q72.44 14.67 72.01 15.08L72.01 15.08L72.01 15.08Q71.58 15.48 71.17 15.79L71.17 15.79L71.17 15.79Q70.76 16.10 70.41 16.27L70.41 16.27L70.41 16.27Q68.67 16.24 67.77 15.27L67.77 15.27L67.77 15.27Q66.88 14.31 66.88 12.43ZM82.32 16.24L82.32 16.24L82.32 16.24Q81.65 16.04 81.39 15.85L81.39 15.85L81.39 15.85Q81.13 15.65 81.13 15.36L81.13 15.36L81.13 15.36Q81.13 15.13 81.26 14.73L81.26 14.73L81.26 14.73Q81.38 14.32 81.63 13.77L81.63 13.77L81.63 13.77Q81.87 13.22 82.22 12.54L82.22 12.54L82.22 12.54Q82.56 11.87 82.99 11.10L82.99 11.10L82.99 11.10Q82.63 11.09 82.34 11.08L82.34 11.08L82.34 11.08Q82.05 11.07 81.87 11.07L81.87 11.07L81.87 11.07Q81.96 10.86 82.35 10.71L82.35 10.71L82.35 10.71Q82.74 10.56 83.38 10.44L83.38 10.44L83.38 10.44Q83.93 9.53 84.55 8.71L84.55 8.71L84.55 8.71Q85.18 7.88 85.81 7.19L85.81 7.19L85.81 7.19Q86.44 6.50 87.07 5.97L87.07 5.97L87.07 5.97Q87.70 5.45 88.27 5.14L88.27 5.14L88.27 5.14Q88.28 5.04 88.29 4.97L88.29 4.97L88.29 4.97Q88.30 4.90 88.30 4.87L88.30 4.87L88.30 4.87Q88.49 4.87 88.82 4.97L88.82 4.97L88.82 4.97Q89.15 5.07 89.47 5.21L89.47 5.21L89.47 5.21Q89.78 5.35 90.03 5.49L90.03 5.49L90.03 5.49Q90.27 5.64 90.30 5.74L90.30 5.74L90.30 5.74Q89.84 6.55 89.39 8.17L89.39 8.17L89.39 8.17Q88.94 9.79 88.65 12.04L88.65 12.04L88.65 12.04Q88.58 12.60 88.53 13.31L88.53 13.31L88.53 13.31Q88.48 14.03 88.48 14.91L88.48 14.91L88.48 14.91Q88.48 15.22 88.48 15.54L88.48 15.54L88.48 15.54Q88.48 15.86 88.51 16.21L88.51 16.21L88.51 16.21Q88.48 16.23 88.45 16.23L88.45 16.23L88.45 16.23Q88.42 16.23 88.34 16.23L88.34 16.23L88.34 16.23Q88.14 16.23 87.89 16.16L87.89 16.16L87.89 16.16Q87.63 16.10 87.38 16.01L87.38 16.01L87.38 16.01Q87.14 15.92 86.96 15.81L86.96 15.81L86.96 15.81Q86.79 15.69 86.74 15.61L86.74 15.61L86.74 15.61Q86.73 15.43 86.73 15.25L86.73 15.25L86.73 15.25Q86.73 15.08 86.73 14.88L86.73 14.88L86.73 14.88Q86.73 14.01 86.79 13.12L86.79 13.12L86.79 13.12Q86.86 12.22 87.01 11.27L87.01 11.27L87.01 11.27Q86.81 11.26 86.49 11.23L86.49 11.23L86.49 11.23Q86.17 11.21 85.77 11.20L85.77 11.20L85.77 11.20Q85.37 11.19 84.92 11.16L84.92 11.16L84.92 11.16Q84.46 11.14 84.03 11.13L84.03 11.13L84.03 11.13Q83.69 11.76 83.40 12.38L83.40 12.38L83.40 12.38Q83.10 13.01 82.89 13.64L82.89 13.64L82.89 13.64Q82.66 14.31 82.51 14.98L82.51 14.98L82.51 14.98Q82.36 15.65 82.32 16.24ZM87.72 7.83L87.72 7.83L87.72 7.83Q87.78 7.63 87.86 7.29L87.86 7.29L87.86 7.29Q87.93 6.94 88.00 6.57L88.00 6.57L88.00 6.57Q87.65 6.69 87.23 7.03L87.23 7.03L87.23 7.03Q86.80 7.36 86.35 7.86L86.35 7.86L86.35 7.86Q85.89 8.36 85.42 8.98L85.42 8.98L85.42 8.98Q84.95 9.60 84.52 10.30L84.52 10.30L84.52 10.30Q85.69 10.21 87.19 10.18L87.19 10.18L87.19 10.18Q87.30 9.59 87.44 9.01L87.44 9.01L87.44 9.01Q87.57 8.43 87.72 7.83ZM102.89 14.38L102.89 14.38L102.89 14.38Q103.24 14.98 103.24 15.54L103.24 15.54L103.24 15.54Q103.24 15.67 103.22 15.77L103.22 15.77L103.22 15.77Q103.19 15.88 103.17 15.99L103.17 15.99L103.17 15.99Q102.93 15.96 102.67 15.95L102.67 15.95L102.67 15.95Q102.41 15.93 102.13 15.93L102.13 15.93L102.13 15.93Q101.79 15.93 101.45 15.95L101.45 15.95L101.45 15.95Q101.11 15.97 100.69 16.02L100.69 16.02L100.69 16.02Q100.27 16.06 99.75 16.13L99.75 16.13L99.75 16.13Q99.23 16.20 98.55 16.31L98.55 16.31L98.55 16.31Q98.22 16.20 97.90 15.87L97.90 15.87L97.90 15.87Q97.58 15.54 97.30 15.08L97.30 15.08L97.30 15.08Q97.44 14.77 97.65 14.31L97.65 14.31L97.65 14.31Q97.86 13.86 98.14 13.21L98.14 13.21L98.14 13.21Q98.42 12.56 98.76 11.68L98.76 11.68L98.76 11.68Q99.11 10.81 99.50 9.66L99.50 9.66L99.50 9.66Q99.75 8.90 99.93 8.33L99.93 8.33L99.93 8.33Q100.11 7.76 100.26 7.22L100.26 7.22L100.26 7.22Q100.41 6.68 100.55 6.09L100.55 6.09L100.55 6.09Q100.69 5.50 100.86 4.73L100.86 4.73L100.86 4.73Q101.42 4.84 101.83 5.14L101.83 5.14L101.83 5.14Q102.24 5.45 102.62 6.01L102.62 6.01L102.62 6.01Q102.51 6.19 102.33 6.59L102.33 6.59L102.33 6.59Q102.14 7 101.90 7.58L101.90 7.58L101.90 7.58Q101.65 8.16 101.36 8.90L101.36 8.90L101.36 8.90Q101.07 9.63 100.74 10.47L100.74 10.47L100.74 10.47Q100.44 11.30 100.14 12.03L100.14 12.03L100.14 12.03Q99.85 12.75 99.62 13.34L99.62 13.34L99.62 13.34Q99.39 13.93 99.25 14.35L99.25 14.35L99.25 14.35Q99.11 14.77 99.11 14.98L99.11 14.98L99.11 14.98Q99.33 14.97 99.51 14.95L99.51 14.95L99.51 14.95Q99.69 14.94 99.89 14.90L99.89 14.90L99.89 14.90Q100.09 14.87 100.32 14.82L100.32 14.82L100.32 14.82Q100.55 14.77 100.87 14.69L100.87 14.69L100.87 14.69Q101.15 14.62 101.39 14.57L101.39 14.57L101.39 14.57Q101.63 14.52 101.86 14.48L101.86 14.48L101.86 14.48Q102.09 14.45 102.33 14.43L102.33 14.43L102.33 14.43Q102.58 14.41 102.89 14.38ZM122.43 14.38L122.43 14.38L122.43 14.38Q122.43 13.87 122.59 13.07L122.59 13.07L122.59 13.07Q122.75 12.26 123.01 11.33L123.01 11.33L123.01 11.33Q123.27 10.40 123.61 9.43L123.61 9.43L123.61 9.43Q123.94 8.46 124.29 7.60L124.29 7.60L124.29 7.60Q124.64 6.75 124.98 6.10L124.98 6.10L124.98 6.10Q125.31 5.46 125.58 5.18L125.58 5.18L125.58 5.18Q125.72 5.19 125.95 5.29L125.95 5.29L125.95 5.29Q126.18 5.38 126.42 5.50L126.42 5.50L126.42 5.50Q126.66 5.63 126.85 5.78L126.85 5.78L126.85 5.78Q127.05 5.92 127.11 6.05L127.11 6.05L127.11 6.05Q126.70 6.41 126.30 7.15L126.30 7.15L126.30 7.15Q125.90 7.88 125.53 8.82L125.53 8.82L125.53 8.82Q125.16 9.76 124.84 10.80L124.84 10.80L124.84 10.80Q124.52 11.84 124.28 12.82L124.28 12.82L124.28 12.82Q124.04 13.80 123.91 14.64L123.91 14.64L123.91 14.64Q123.77 15.48 123.77 16.00L123.77 16.00L123.77 16.00Q123.77 16.24 123.82 16.30L123.82 16.30L123.82 16.30Q123.51 16.28 123.37 16.19L123.37 16.19L123.37 16.19Q123.23 16.10 123.15 16.00L123.15 16.00L123.15 16.00Q123.07 15.89 123.01 15.79L123.01 15.79L123.01 15.79Q122.95 15.68 122.82 15.62L122.82 15.62L122.82 15.62Q122.72 15.58 122.65 15.43L122.65 15.43L122.65 15.43Q122.58 15.27 122.53 15.09L122.53 15.09L122.53 15.09Q122.49 14.90 122.46 14.70L122.46 14.70L122.46 14.70Q122.43 14.50 122.43 14.38ZM139.20 16.21L139.20 16.21L139.20 16.21Q139.17 16.23 139.15 16.23L139.15 16.23L139.15 16.23Q139.12 16.23 139.03 16.23L139.03 16.23L139.03 16.23Q138.84 16.23 138.58 16.16L138.58 16.16L138.58 16.16Q138.32 16.10 138.07 16.01L138.07 16.01L138.07 16.01Q137.83 15.92 137.66 15.81L137.66 15.81L137.66 15.81Q137.48 15.69 137.44 15.61L137.44 15.61L137.44 15.61Q137.42 15.41 137.42 15.20L137.42 15.20L137.42 15.20Q137.42 14.99 137.42 14.80L137.42 14.80L137.42 14.80Q137.42 13.23 137.66 11.52L137.66 11.52L137.66 11.52Q137.89 9.81 138.42 7.83L138.42 7.83L138.42 7.83Q138.47 7.63 138.54 7.33L138.54 7.33L138.54 7.33Q138.60 7.03 138.67 6.68L138.67 6.68L138.67 6.68Q138.33 6.94 137.87 7.53L137.87 7.53L137.87 7.53Q137.41 8.11 136.90 8.90L136.90 8.90L136.90 8.90Q136.39 9.69 135.88 10.63L135.88 10.63L135.88 10.63Q135.37 11.58 134.95 12.55L134.95 12.55L134.95 12.55Q134.53 13.52 134.22 14.48L134.22 14.48L134.22 14.48Q133.92 15.43 133.85 16.24L133.85 16.24L133.85 16.24Q133.18 16.04 132.92 15.85L132.92 15.85L132.92 15.85Q132.66 15.65 132.66 15.37L132.66 15.37L132.66 15.37Q132.66 15.12 132.82 14.66L132.82 14.66L132.82 14.66Q132.97 14.20 133.25 13.57L133.25 13.57L133.25 13.57Q133.53 12.94 133.94 12.16L133.94 12.16L133.94 12.16Q134.34 11.38 134.83 10.49L134.83 10.49L134.83 10.49Q135.39 9.46 135.93 8.57L135.93 8.57L135.93 8.57Q136.47 7.67 136.99 6.94L136.99 6.94L136.99 6.94Q137.51 6.22 138.00 5.68L138.00 5.68L138.00 5.68Q138.50 5.15 138.99 4.87L138.99 4.87L138.99 4.87Q139.19 4.87 139.52 4.97L139.52 4.97L139.52 4.97Q139.85 5.07 140.16 5.21L140.16 5.21L140.16 5.21Q140.48 5.35 140.72 5.49L140.72 5.49L140.72 5.49Q140.97 5.64 140.99 5.74L140.99 5.74L140.99 5.74Q140.80 6.13 140.53 6.92L140.53 6.92L140.53 6.92Q140.27 7.70 139.99 8.69L139.99 8.69L139.99 8.69Q139.72 9.69 139.47 10.80L139.47 10.80L139.47 10.80Q139.23 11.91 139.09 12.94L139.09 12.94L139.09 12.94Q139.41 12.17 139.84 11.33L139.84 11.33L139.84 11.33Q140.27 10.50 140.74 9.68L140.74 9.68L140.74 9.68Q141.22 8.86 141.72 8.09L141.72 8.09L141.72 8.09Q142.21 7.32 142.69 6.69L142.69 6.69L142.69 6.69Q143.16 6.05 143.58 5.57L143.58 5.57L143.58 5.57Q143.99 5.10 144.31 4.87L144.31 4.87L144.31 4.87Q144.51 4.87 144.84 4.97L144.84 4.97L144.84 4.97Q145.17 5.07 145.48 5.21L145.48 5.21L145.48 5.21Q145.80 5.35 146.04 5.49L146.04 5.49L146.04 5.49Q146.29 5.64 146.31 5.74L146.31 5.74L146.31 5.74Q145.87 6.54 145.53 7.69L145.53 7.69L145.53 7.69Q145.19 8.83 144.96 10.09L144.96 10.09L144.96 10.09Q144.73 11.35 144.61 12.59L144.61 12.59L144.61 12.59Q144.49 13.83 144.49 14.81L144.49 14.81L144.49 14.81Q144.49 15.13 144.49 15.48L144.49 15.48L144.49 15.48Q144.49 15.83 144.52 16.21L144.52 16.21L144.52 16.21Q144.33 16.21 144.05 16.16L144.05 16.16L144.05 16.16Q143.78 16.11 143.52 16.03L143.52 16.03L143.52 16.03Q143.26 15.95 143.05 15.84L143.05 15.84L143.05 15.84Q142.84 15.74 142.76 15.61L142.76 15.61L142.76 15.61Q142.74 15.41 142.74 15.20L142.74 15.20L142.74 15.20Q142.74 14.99 142.74 14.80L142.74 14.80L142.74 14.80Q142.74 13.23 142.97 11.52L142.97 11.52L142.97 11.52Q143.21 9.81 143.74 7.83L143.74 7.83L143.74 7.83Q143.79 7.63 143.86 7.29L143.86 7.29L143.86 7.29Q143.93 6.96 144.00 6.59L144.00 6.59L144.00 6.59Q143.61 6.79 143.12 7.34L143.12 7.34L143.12 7.34Q142.62 7.90 142.11 8.69L142.11 8.69L142.11 8.69Q141.60 9.48 141.10 10.44L141.10 10.44L141.10 10.44Q140.60 11.41 140.20 12.41L140.20 12.41L140.20 12.41Q139.80 13.41 139.53 14.40L139.53 14.40L139.53 14.40Q139.26 15.39 139.20 16.21ZM154.24 16.24L154.24 16.24L154.24 16.24Q153.57 16.04 153.31 15.85L153.31 15.85L153.31 15.85Q153.05 15.65 153.05 15.36L153.05 15.36L153.05 15.36Q153.05 15.13 153.17 14.73L153.17 14.73L153.17 14.73Q153.30 14.32 153.54 13.77L153.54 13.77L153.54 13.77Q153.79 13.22 154.13 12.54L154.13 12.54L154.13 12.54Q154.48 11.87 154.91 11.10L154.91 11.10L154.91 11.10Q154.55 11.09 154.26 11.08L154.26 11.08L154.26 11.08Q153.97 11.07 153.79 11.07L153.79 11.07L153.79 11.07Q153.87 10.86 154.27 10.71L154.27 10.71L154.27 10.71Q154.66 10.56 155.30 10.44L155.30 10.44L155.30 10.44Q155.85 9.53 156.47 8.71L156.47 8.71L156.47 8.71Q157.09 7.88 157.72 7.19L157.72 7.19L157.72 7.19Q158.35 6.50 158.98 5.97L158.98 5.97L158.98 5.97Q159.61 5.45 160.19 5.14L160.19 5.14L160.19 5.14Q160.20 5.04 160.21 4.97L160.21 4.97L160.21 4.97Q160.22 4.90 160.22 4.87L160.22 4.87L160.22 4.87Q160.41 4.87 160.74 4.97L160.74 4.97L160.74 4.97Q161.07 5.07 161.38 5.21L161.38 5.21L161.38 5.21Q161.70 5.35 161.94 5.49L161.94 5.49L161.94 5.49Q162.19 5.64 162.22 5.74L162.22 5.74L162.22 5.74Q161.76 6.55 161.31 8.17L161.31 8.17L161.31 8.17Q160.86 9.79 160.57 12.04L160.57 12.04L160.57 12.04Q160.50 12.60 160.45 13.31L160.45 13.31L160.45 13.31Q160.40 14.03 160.40 14.91L160.40 14.91L160.40 14.91Q160.40 15.22 160.40 15.54L160.40 15.54L160.40 15.54Q160.40 15.86 160.43 16.21L160.43 16.21L160.43 16.21Q160.40 16.23 160.37 16.23L160.37 16.23L160.37 16.23Q160.34 16.23 160.26 16.23L160.26 16.23L160.26 16.23Q160.06 16.23 159.80 16.16L159.80 16.16L159.80 16.16Q159.54 16.10 159.30 16.01L159.30 16.01L159.30 16.01Q159.05 15.92 158.88 15.81L158.88 15.81L158.88 15.81Q158.70 15.69 158.66 15.61L158.66 15.61L158.66 15.61Q158.65 15.43 158.65 15.25L158.65 15.25L158.65 15.25Q158.65 15.08 158.65 14.88L158.65 14.88L158.65 14.88Q158.65 14.01 158.71 13.12L158.71 13.12L158.71 13.12Q158.77 12.22 158.93 11.27L158.93 11.27L158.93 11.27Q158.73 11.26 158.41 11.23L158.41 11.23L158.41 11.23Q158.09 11.21 157.69 11.20L157.69 11.20L157.69 11.20Q157.29 11.19 156.83 11.16L156.83 11.16L156.83 11.16Q156.38 11.14 155.95 11.13L155.95 11.13L155.95 11.13Q155.61 11.76 155.32 12.38L155.32 12.38L155.32 12.38Q155.02 13.01 154.81 13.64L154.81 13.64L154.81 13.64Q154.57 14.31 154.43 14.98L154.43 14.98L154.43 14.98Q154.28 15.65 154.24 16.24ZM159.64 7.83L159.64 7.83L159.64 7.83Q159.70 7.63 159.77 7.29L159.77 7.29L159.77 7.29Q159.85 6.94 159.92 6.57L159.92 6.57L159.92 6.57Q159.57 6.69 159.14 7.03L159.14 7.03L159.14 7.03Q158.72 7.36 158.26 7.86L158.26 7.86L158.26 7.86Q157.81 8.36 157.34 8.98L157.34 8.98L157.34 8.98Q156.87 9.60 156.44 10.30L156.44 10.30L156.44 10.30Q157.61 10.21 159.11 10.18L159.11 10.18L159.11 10.18Q159.22 9.59 159.35 9.01L159.35 9.01L159.35 9.01Q159.49 8.43 159.64 7.83ZM177.14 10.72L177.14 10.72L177.14 10.72Q177.51 10.72 177.72 10.98L177.72 10.98L177.72 10.98Q177.93 11.23 177.93 11.68L177.93 11.68L177.93 11.68Q177.93 11.79 177.91 11.91L177.91 11.91L177.91 11.91Q177.90 12.03 177.87 12.11L177.87 12.11L177.87 12.11Q177.58 12.04 177.23 12.03L177.23 12.03L177.23 12.03Q177.14 12.64 176.78 13.32L176.78 13.32L176.78 13.32Q176.41 14 175.90 14.60L175.90 14.60L175.90 14.60Q175.38 15.19 174.76 15.64L174.76 15.64L174.76 15.64Q174.15 16.09 173.54 16.24L173.54 16.24L173.54 16.24Q171.67 16.20 170.81 15.27L170.81 15.27L170.81 15.27Q169.95 14.34 169.95 12.36L169.95 12.36L169.95 12.36Q169.95 10.92 170.48 9.57L170.48 9.57L170.48 9.57Q171.01 8.22 171.89 7.17L171.89 7.17L171.89 7.17Q172.77 6.12 173.91 5.48L173.91 5.48L173.91 5.48Q175.06 4.84 176.29 4.84L176.29 4.84L176.29 4.84Q177.25 4.84 177.79 5.25L177.79 5.25L177.79 5.25Q178.33 5.66 178.33 6.40L178.33 6.40L178.33 6.40Q178.33 6.89 178.10 7.31L178.10 7.31L178.10 7.31Q177.87 7.73 177.34 8.22L177.34 8.22L177.34 8.22Q177.02 8.12 176.78 7.88L176.78 7.88L176.78 7.88Q176.54 7.63 176.48 7.31L176.48 7.31L176.48 7.31Q176.96 6.96 177.16 6.66L177.16 6.66L177.16 6.66Q177.35 6.37 177.35 5.96L177.35 5.96L177.35 5.96Q177.35 5.32 176.58 5.32L176.58 5.32L176.58 5.32Q175.95 5.32 175.23 5.79L175.23 5.79L175.23 5.79Q174.51 6.26 173.78 7.14L173.78 7.14L173.78 7.14Q172.75 8.39 172.27 9.71L172.27 9.71L172.27 9.71Q171.79 11.03 171.79 12.68L171.79 12.68L171.79 12.68Q171.79 13.30 171.92 13.80L171.92 13.80L171.92 13.80Q172.05 14.31 172.26 14.69L172.26 14.69L172.26 14.69Q172.47 15.06 172.75 15.29L172.75 15.29L172.75 15.29Q173.04 15.51 173.38 15.54L173.38 15.54L173.38 15.54Q173.82 15.44 174.27 15.09L174.27 15.09L174.27 15.09Q174.72 14.73 175.09 14.25L175.09 14.25L175.09 14.25Q175.46 13.76 175.72 13.21L175.72 13.21L175.72 13.21Q175.98 12.66 176.04 12.15L176.04 12.15L176.04 12.15Q175.64 12.24 175.29 12.31L175.29 12.31L175.29 12.31Q174.93 12.39 174.61 12.39L174.61 12.39L174.61 12.39Q174.19 12.39 173.87 12.18L173.87 12.18L173.87 12.18Q173.56 11.97 173.45 11.61L173.45 11.61L173.45 11.61Q173.70 11.47 174.18 11.31L174.18 11.31L174.18 11.31Q174.66 11.16 175.21 11.03L175.21 11.03L175.21 11.03Q175.76 10.89 176.28 10.81L176.28 10.81L176.28 10.81Q176.81 10.72 177.14 10.72ZM191.27 9.21L191.27 9.21L191.27 9.21Q191.73 9.21 191.99 9.46L191.99 9.46L191.99 9.46Q192.25 9.72 192.25 10.16L192.25 10.16L192.25 10.16Q192.25 10.28 192.23 10.39L192.23 10.39L192.23 10.39Q192.21 10.51 192.18 10.60L192.18 10.60L192.18 10.60Q192.00 10.57 191.77 10.55L191.77 10.55L191.77 10.55Q191.55 10.53 191.24 10.53L191.24 10.53L191.24 10.53Q190.64 10.53 190.02 10.63L190.02 10.63L190.02 10.63Q189.41 10.74 188.85 10.81L188.85 10.81L188.85 10.81Q188.52 11.55 188.26 12.24L188.26 12.24L188.26 12.24Q187.99 12.94 187.80 13.51L187.80 13.51L187.80 13.51Q187.61 14.08 187.51 14.50L187.51 14.50L187.51 14.50Q187.40 14.92 187.39 15.13L187.39 15.13L187.39 15.13Q188.52 14.90 189.68 14.73L189.68 14.73L189.68 14.73Q190.83 14.56 192.11 14.48L192.11 14.48L192.11 14.48Q192.26 14.71 192.37 14.99L192.37 14.99L192.37 14.99Q192.47 15.27 192.47 15.60L192.47 15.60L192.47 15.60Q192.47 15.68 192.47 15.78L192.47 15.78L192.47 15.78Q192.47 15.88 192.44 15.97L192.44 15.97L192.44 15.97Q192.05 15.96 191.62 15.95L191.62 15.95L191.62 15.95Q191.18 15.95 190.48 15.95L190.48 15.95L190.48 15.95Q190.02 15.95 189.61 15.97L189.61 15.97L189.61 15.97Q189.20 15.99 188.78 16.03L188.78 16.03L188.78 16.03Q188.36 16.07 187.89 16.14L187.89 16.14L187.89 16.14Q187.42 16.21 186.83 16.31L186.83 16.31L186.83 16.31Q186.19 16.06 185.58 15.08L185.58 15.08L185.58 15.08Q185.82 14.57 186.25 13.54L186.25 13.54L186.25 13.54Q186.68 12.52 187.33 10.79L187.33 10.79L187.33 10.79Q186.70 10.60 186.51 10.09L186.51 10.09L186.51 10.09Q186.58 10.02 186.91 9.92L186.91 9.92L186.91 9.92Q187.25 9.81 187.74 9.70L187.74 9.70L187.74 9.70Q187.95 9.16 188.10 8.75L188.10 8.75L188.10 8.75Q188.24 8.34 188.36 7.99L188.36 7.99L188.36 7.99Q188.47 7.63 188.56 7.29L188.56 7.29L188.56 7.29Q188.65 6.94 188.73 6.54L188.73 6.54L188.73 6.54Q188.24 6.51 187.96 6.27L187.96 6.27L187.96 6.27Q187.68 6.02 187.68 5.63L187.68 5.63L187.68 5.63Q187.68 5.52 187.72 5.36L187.72 5.36L187.72 5.36Q187.75 5.21 187.80 5.10L187.80 5.10L187.80 5.10Q188.08 5.14 188.33 5.15L188.33 5.15L188.33 5.15Q188.59 5.17 189.01 5.17L189.01 5.17L189.01 5.17Q189.90 5.17 190.67 5.12L190.67 5.12L190.67 5.12Q191.44 5.07 192.06 5.01L192.06 5.01L192.06 5.01Q192.68 4.96 193.13 4.91L193.13 4.91L193.13 4.91Q193.58 4.86 193.82 4.86L193.82 4.86L193.82 4.86Q194.14 4.86 194.39 5.19L194.39 5.19L194.39 5.19Q194.64 5.53 194.77 6.15L194.77 6.15L194.77 6.15Q194.33 6.10 194.06 6.09L194.06 6.09L194.06 6.09Q193.79 6.08 193.58 6.08L193.58 6.08L193.58 6.08Q192.81 6.08 192.17 6.15L192.17 6.15L192.17 6.15Q191.53 6.23 190.95 6.31L190.95 6.31L190.95 6.31Q190.86 6.44 190.76 6.64L190.76 6.64L190.76 6.64Q190.65 6.83 190.48 7.18L190.48 7.18L190.48 7.18Q190.32 7.53 190.07 8.06L190.07 8.06L190.07 8.06Q189.83 8.60 189.48 9.39L189.48 9.39L189.48 9.39Q190.01 9.31 190.48 9.26L190.48 9.26L190.48 9.26Q190.95 9.21 191.27 9.21ZM212.28 14.45L212.28 14.45L212.28 14.45Q212.49 13.99 212.79 13.26L212.79 13.26L212.79 13.26Q213.08 12.53 213.40 11.68L213.40 11.68L213.40 11.68Q213.72 10.84 214.06 9.95L214.06 9.95L214.06 9.95Q214.40 9.06 214.69 8.26L214.69 8.26L214.69 8.26Q214.98 7.46 215.20 6.83L215.20 6.83L215.20 6.83Q215.42 6.20 215.52 5.87L215.52 5.87L215.52 5.87Q214.63 6.23 214.00 6.97L214.00 6.97L214.00 6.97Q213.37 7.71 213.05 8.83L213.05 8.83L213.05 8.83Q212.73 8.72 212.46 8.43L212.46 8.43L212.46 8.43Q212.20 8.15 212.11 7.71L212.11 7.71L212.11 7.71Q212.25 7.07 212.64 6.54L212.64 6.54L212.64 6.54Q213.02 6.01 213.61 5.63L213.61 5.63L213.61 5.63Q214.20 5.25 214.97 5.05L214.97 5.05L214.97 5.05Q215.74 4.84 216.62 4.84L216.62 4.84L216.62 4.84Q217.74 4.84 218.68 5.17L218.68 5.17L218.68 5.17Q219.62 5.50 220.29 6.09L220.29 6.09L220.29 6.09Q220.96 6.68 221.34 7.50L221.34 7.50L221.34 7.50Q221.72 8.33 221.72 9.34L221.72 9.34L221.72 9.34Q221.72 10.71 221.21 11.96L221.21 11.96L221.21 11.96Q220.71 13.20 219.85 14.15L219.85 14.15L219.85 14.15Q218.99 15.11 217.85 15.67L217.85 15.67L217.85 15.67Q216.72 16.24 215.47 16.24L215.47 16.24L215.47 16.24Q214.33 16.24 213.51 15.79L213.51 15.79L213.51 15.79Q212.69 15.33 212.28 14.45ZM217.22 5.54L217.22 5.54L217.22 5.54Q216.52 5.54 215.89 5.74L215.89 5.74L215.89 5.74Q216.51 5.96 216.92 6.21L216.92 6.21L216.92 6.21Q217.32 6.45 217.48 6.59L217.48 6.59L217.48 6.59Q217.36 6.75 217.15 7.14L217.15 7.14L217.15 7.14Q216.93 7.53 216.64 8.09L216.64 8.09L216.64 8.09Q216.36 8.65 216.03 9.32L216.03 9.32L216.03 9.32Q215.71 9.98 215.40 10.68L215.40 10.68L215.40 10.68Q214.61 12.46 214.25 13.48L214.25 13.48L214.25 13.48Q213.89 14.50 213.89 14.90L213.89 14.90L213.89 14.90Q214.09 14.97 214.37 14.99L214.37 14.99L214.37 14.99Q214.65 15.02 214.97 15.02L214.97 15.02L214.97 15.02Q216.10 15.02 217.12 14.50L217.12 14.50L217.12 14.50Q218.13 13.97 218.90 13.09L218.90 13.09L218.90 13.09Q219.66 12.21 220.10 11.04L220.10 11.04L220.10 11.04Q220.54 9.87 220.54 8.58L220.54 8.58L220.54 8.58Q220.54 7.14 219.65 6.34L219.65 6.34L219.65 6.34Q218.75 5.54 217.22 5.54ZM229.66 14.38L229.66 14.38L229.66 14.38Q229.66 13.87 229.82 13.07L229.82 13.07L229.82 13.07Q229.98 12.26 230.24 11.33L230.24 11.33L230.24 11.33Q230.50 10.40 230.83 9.43L230.83 9.43L230.83 9.43Q231.17 8.46 231.52 7.60L231.52 7.60L231.52 7.60Q231.87 6.75 232.20 6.10L232.20 6.10L232.20 6.10Q232.54 5.46 232.81 5.18L232.81 5.18L232.81 5.18Q232.95 5.19 233.18 5.29L233.18 5.29L233.18 5.29Q233.41 5.38 233.65 5.50L233.65 5.50L233.65 5.50Q233.88 5.63 234.08 5.78L234.08 5.78L234.08 5.78Q234.28 5.92 234.33 6.05L234.33 6.05L234.33 6.05Q233.93 6.41 233.53 7.15L233.53 7.15L233.53 7.15Q233.13 7.88 232.76 8.82L232.76 8.82L232.76 8.82Q232.39 9.76 232.06 10.80L232.06 10.80L232.06 10.80Q231.74 11.84 231.50 12.82L231.50 12.82L231.50 12.82Q231.27 13.80 231.13 14.64L231.13 14.64L231.13 14.64Q231.00 15.48 231.00 16.00L231.00 16.00L231.00 16.00Q231.00 16.24 231.04 16.30L231.04 16.30L231.04 16.30Q230.73 16.28 230.59 16.19L230.59 16.19L230.59 16.19Q230.45 16.10 230.38 16.00L230.38 16.00L230.38 16.00Q230.30 15.89 230.24 15.79L230.24 15.79L230.24 15.79Q230.17 15.68 230.05 15.62L230.05 15.62L230.05 15.62Q229.95 15.58 229.88 15.43L229.88 15.43L229.88 15.43Q229.81 15.27 229.76 15.09L229.76 15.09L229.76 15.09Q229.71 14.90 229.68 14.70L229.68 14.70L229.68 14.70Q229.66 14.50 229.66 14.38ZM241.28 16.24L241.28 16.24L241.28 16.24Q240.60 16.04 240.34 15.85L240.34 15.85L240.34 15.85Q240.09 15.65 240.09 15.36L240.09 15.36L240.09 15.36Q240.09 15.13 240.21 14.73L240.21 14.73L240.21 14.73Q240.34 14.32 240.58 13.77L240.58 13.77L240.58 13.77Q240.83 13.22 241.17 12.54L241.17 12.54L241.17 12.54Q241.51 11.87 241.95 11.10L241.95 11.10L241.95 11.10Q241.58 11.09 241.30 11.08L241.30 11.08L241.30 11.08Q241.01 11.07 240.83 11.07L240.83 11.07L240.83 11.07Q240.91 10.86 241.30 10.71L241.30 10.71L241.30 10.71Q241.70 10.56 242.34 10.44L242.34 10.44L242.34 10.44Q242.89 9.53 243.51 8.71L243.51 8.71L243.51 8.71Q244.13 7.88 244.76 7.19L244.76 7.19L244.76 7.19Q245.39 6.50 246.02 5.97L246.02 5.97L246.02 5.97Q246.65 5.45 247.23 5.14L247.23 5.14L247.23 5.14Q247.24 5.04 247.25 4.97L247.25 4.97L247.25 4.97Q247.25 4.90 247.25 4.87L247.25 4.87L247.25 4.87Q247.45 4.87 247.78 4.97L247.78 4.97L247.78 4.97Q248.11 5.07 248.42 5.21L248.42 5.21L248.42 5.21Q248.74 5.35 248.98 5.49L248.98 5.49L248.98 5.49Q249.23 5.64 249.26 5.74L249.26 5.74L249.26 5.74Q248.79 6.55 248.35 8.17L248.35 8.17L248.35 8.17Q247.90 9.79 247.60 12.04L247.60 12.04L247.60 12.04Q247.53 12.60 247.48 13.31L247.48 13.31L247.48 13.31Q247.44 14.03 247.44 14.91L247.44 14.91L247.44 14.91Q247.44 15.22 247.44 15.54L247.44 15.54L247.44 15.54Q247.44 15.86 247.46 16.21L247.46 16.21L247.46 16.21Q247.44 16.23 247.41 16.23L247.41 16.23L247.41 16.23Q247.38 16.23 247.30 16.23L247.30 16.23L247.30 16.23Q247.10 16.23 246.84 16.16L246.84 16.16L246.84 16.16Q246.58 16.10 246.34 16.01L246.34 16.01L246.34 16.01Q246.09 15.92 245.92 15.81L245.92 15.81L245.92 15.81Q245.74 15.69 245.70 15.61L245.70 15.61L245.70 15.61Q245.69 15.43 245.69 15.25L245.69 15.25L245.69 15.25Q245.69 15.08 245.69 14.88L245.69 14.88L245.69 14.88Q245.69 14.01 245.75 13.12L245.75 13.12L245.75 13.12Q245.81 12.22 245.97 11.27L245.97 11.27L245.97 11.27Q245.77 11.26 245.45 11.23L245.45 11.23L245.45 11.23Q245.13 11.21 244.73 11.20L244.73 11.20L244.73 11.20Q244.33 11.19 243.87 11.16L243.87 11.16L243.87 11.16Q243.42 11.14 242.98 11.13L242.98 11.13L242.98 11.13Q242.65 11.76 242.35 12.38L242.35 12.38L242.35 12.38Q242.06 13.01 241.85 13.64L241.85 13.64L241.85 13.64Q241.61 14.31 241.46 14.98L241.46 14.98L241.46 14.98Q241.32 15.65 241.28 16.24ZM246.68 7.83L246.68 7.83L246.68 7.83Q246.74 7.63 246.81 7.29L246.81 7.29L246.81 7.29Q246.89 6.94 246.96 6.57L246.96 6.57L246.96 6.57Q246.61 6.69 246.18 7.03L246.18 7.03L246.18 7.03Q245.76 7.36 245.30 7.86L245.30 7.86L245.30 7.86Q244.85 8.36 244.38 8.98L244.38 8.98L244.38 8.98Q243.91 9.60 243.47 10.30L243.47 10.30L243.47 10.30Q244.65 10.21 246.15 10.18L246.15 10.18L246.15 10.18Q246.26 9.59 246.39 9.01L246.39 9.01L246.39 9.01Q246.53 8.43 246.68 7.83ZM264.18 10.72L264.18 10.72L264.18 10.72Q264.54 10.72 264.75 10.98L264.75 10.98L264.75 10.98Q264.96 11.23 264.96 11.68L264.96 11.68L264.96 11.68Q264.96 11.79 264.95 11.91L264.95 11.91L264.95 11.91Q264.94 12.03 264.91 12.11L264.91 12.11L264.91 12.11Q264.61 12.04 264.26 12.03L264.26 12.03L264.26 12.03Q264.18 12.64 263.82 13.32L263.82 13.32L263.82 13.32Q263.45 14 262.93 14.60L262.93 14.60L262.93 14.60Q262.42 15.19 261.80 15.64L261.80 15.64L261.80 15.64Q261.18 16.09 260.58 16.24L260.58 16.24L260.58 16.24Q258.71 16.20 257.84 15.27L257.84 15.27L257.84 15.27Q256.98 14.34 256.98 12.36L256.98 12.36L256.98 12.36Q256.98 10.92 257.52 9.57L257.52 9.57L257.52 9.57Q258.05 8.22 258.93 7.17L258.93 7.17L258.93 7.17Q259.81 6.12 260.95 5.48L260.95 5.48L260.95 5.48Q262.09 4.84 263.33 4.84L263.33 4.84L263.33 4.84Q264.29 4.84 264.83 5.25L264.83 5.25L264.83 5.25Q265.37 5.66 265.37 6.40L265.37 6.40L265.37 6.40Q265.37 6.89 265.14 7.31L265.14 7.31L265.14 7.31Q264.91 7.73 264.38 8.22L264.38 8.22L264.38 8.22Q264.05 8.12 263.82 7.88L263.82 7.88L263.82 7.88Q263.58 7.63 263.52 7.31L263.52 7.31L263.52 7.31Q264.00 6.96 264.19 6.66L264.19 6.66L264.19 6.66Q264.39 6.37 264.39 5.96L264.39 5.96L264.39 5.96Q264.39 5.32 263.62 5.32L263.62 5.32L263.62 5.32Q262.99 5.32 262.27 5.79L262.27 5.79L262.27 5.79Q261.55 6.26 260.82 7.14L260.82 7.14L260.82 7.14Q259.78 8.39 259.31 9.71L259.31 9.71L259.31 9.71Q258.83 11.03 258.83 12.68L258.83 12.68L258.83 12.68Q258.83 13.30 258.96 13.80L258.96 13.80L258.96 13.80Q259.08 14.31 259.29 14.69L259.29 14.69L259.29 14.69Q259.50 15.06 259.79 15.29L259.79 15.29L259.79 15.29Q260.08 15.51 260.41 15.54L260.41 15.54L260.41 15.54Q260.86 15.44 261.31 15.09L261.31 15.09L261.31 15.09Q261.76 14.73 262.13 14.25L262.13 14.25L262.13 14.25Q262.50 13.76 262.76 13.21L262.76 13.21L262.76 13.21Q263.02 12.66 263.07 12.15L263.07 12.15L263.07 12.15Q262.68 12.24 262.32 12.31L262.32 12.31L262.32 12.31Q261.97 12.39 261.65 12.39L261.65 12.39L261.65 12.39Q261.23 12.39 260.91 12.18L260.91 12.18L260.91 12.18Q260.60 11.97 260.48 11.61L260.48 11.61L260.48 11.61Q260.74 11.47 261.22 11.31L261.22 11.31L261.22 11.31Q261.70 11.16 262.25 11.03L262.25 11.03L262.25 11.03Q262.79 10.89 263.32 10.81L263.32 10.81L263.32 10.81Q263.84 10.72 264.18 10.72ZM273.77 16.24L273.77 16.24L273.77 16.24Q272.97 16.00 272.69 15.79L272.69 15.79L272.69 15.79Q272.41 15.57 272.41 15.19L272.41 15.19L272.41 15.19Q272.41 14.77 272.61 14.01L272.61 14.01L272.61 14.01Q272.80 13.24 273.12 12.31L273.12 12.31L273.12 12.31Q273.43 11.37 273.84 10.35L273.84 10.35L273.84 10.35Q274.25 9.32 274.67 8.39L274.67 8.39L274.67 8.39Q275.09 7.45 275.48 6.67L275.48 6.67L275.48 6.67Q275.88 5.89 276.19 5.46L276.19 5.46L276.09 4.87L276.09 4.87Q276.29 4.87 276.64 4.97L276.64 4.97L276.64 4.97Q276.99 5.07 277.35 5.21L277.35 5.21L277.35 5.21Q277.70 5.35 277.98 5.49L277.98 5.49L277.98 5.49Q278.25 5.64 278.28 5.74L278.28 5.74L278.28 5.74Q278.21 6.08 278.17 6.76L278.17 6.76L278.17 6.76Q278.12 7.43 278.12 8.20L278.12 8.20L278.12 8.20Q278.12 9.73 278.24 11.19L278.24 11.19L278.24 11.19Q278.36 12.66 278.80 14.17L278.80 14.17L278.80 14.17Q279.02 13.05 279.28 11.94L279.28 11.94L279.28 11.94Q279.54 10.82 279.82 9.81L279.82 9.81L279.82 9.81Q280.10 8.79 280.38 7.92L280.38 7.92L280.38 7.92Q280.66 7.06 280.92 6.40L280.92 6.40L280.92 6.40Q281.18 5.75 281.40 5.38L281.40 5.38L281.40 5.38Q281.62 5.01 281.81 4.98L281.81 4.98L281.81 4.98Q281.96 5.01 282.14 5.10L282.14 5.10L282.14 5.10Q282.32 5.19 282.49 5.32L282.49 5.32L282.49 5.32Q282.66 5.45 282.80 5.60L282.80 5.60L282.80 5.60Q282.94 5.75 283.02 5.91L283.02 5.91L283.02 5.91Q282.58 6.09 282.13 6.76L282.13 6.76L282.13 6.76Q281.69 7.43 281.29 8.39L281.29 8.39L281.29 8.39Q280.90 9.35 280.55 10.47L280.55 10.47L280.55 10.47Q280.21 11.59 279.95 12.68L279.95 12.68L279.95 12.68Q279.69 13.76 279.54 14.69L279.54 14.69L279.54 14.69Q279.40 15.61 279.38 16.17L279.38 16.17L279.38 16.17Q279.38 16.20 279.40 16.21L279.40 16.21L279.40 16.21Q279.36 16.23 279.31 16.23L279.31 16.23L279.31 16.23Q279.26 16.23 279.22 16.23L279.22 16.23L279.22 16.23Q278.57 16.23 278.07 16.07L278.07 16.07L278.07 16.07Q277.58 15.90 277.42 15.61L277.42 15.61L277.42 15.61Q277.13 14.43 276.93 13.34L276.93 13.34L276.93 13.34Q276.74 12.25 276.60 11.16L276.60 11.16L276.60 11.16Q276.47 10.07 276.39 8.95L276.39 8.95L276.39 8.95Q276.32 7.84 276.28 6.62L276.28 6.62L276.28 6.62Q276.01 7.04 275.72 7.72L275.72 7.72L275.72 7.72Q275.42 8.40 275.14 9.21L275.14 9.21L275.14 9.21Q274.86 10.02 274.60 10.92L274.60 10.92L274.60 10.92Q274.34 11.82 274.15 12.67L274.15 12.67L274.15 12.67Q273.95 13.52 273.84 14.29L273.84 14.29L273.84 14.29Q273.73 15.05 273.73 15.61L273.73 15.61L273.73 15.61Q273.73 15.90 273.73 16.03L273.73 16.03L273.73 16.03Q273.74 16.16 273.77 16.24ZM295.54 4.98L295.54 4.98L295.54 4.98Q295.81 5.10 296.09 5.27L296.09 5.27L296.09 5.27Q296.37 5.45 296.60 5.63L296.60 5.63L296.60 5.63Q296.84 5.81 297.00 5.98L297.00 5.98L297.00 5.98Q297.16 6.16 297.18 6.27L297.18 6.27L297.18 6.27Q296.94 6.22 296.70 6.20L296.70 6.20L296.70 6.20Q296.46 6.17 296.27 6.17L296.27 6.17L296.27 6.17Q295.64 6.17 295.01 6.48L295.01 6.48L295.01 6.48Q294.39 6.79 293.83 7.32L293.83 7.32L293.83 7.32Q293.27 7.85 292.80 8.57L292.80 8.57L292.80 8.57Q292.32 9.28 291.98 10.09L291.98 10.09L291.98 10.09Q291.63 10.91 291.44 11.77L291.44 11.77L291.44 11.77Q291.24 12.64 291.24 13.48L291.24 13.48L291.24 13.48Q291.24 14.57 291.61 15.11L291.61 15.11L291.61 15.11Q291.97 15.64 292.67 15.64L292.67 15.64L292.67 15.64Q293.01 15.64 293.40 15.51L293.40 15.51L293.40 15.51Q293.79 15.37 294.20 15.13L294.20 15.13L294.20 15.13Q294.60 14.90 294.99 14.56L294.99 14.56L294.99 14.56Q295.39 14.22 295.72 13.82L295.72 13.82L295.72 13.82Q296.21 13.23 296.60 12.48L296.60 12.48L296.60 12.48Q297.00 11.73 297.27 10.89L297.27 10.89L297.27 10.89Q297.54 10.05 297.69 9.16L297.69 9.16L297.69 9.16Q297.84 8.27 297.84 7.42L297.84 7.42L297.84 7.42Q297.84 7.08 297.82 6.85L297.82 6.85L297.82 6.85Q297.81 6.62 297.79 6.46L297.79 6.46L297.79 6.46Q297.77 6.30 297.75 6.20L297.75 6.20L297.75 6.20Q297.74 6.10 297.72 6.03L297.72 6.03L297.72 6.03Q297.89 6.12 298.09 6.24L298.09 6.24L298.09 6.24Q298.30 6.36 298.47 6.59L298.47 6.59L298.47 6.59Q298.65 6.82 298.77 7.20L298.77 7.20L298.77 7.20Q298.89 7.57 298.89 8.18L298.89 8.18L298.89 8.18Q298.89 9.16 298.65 10.10L298.65 10.10L298.65 10.10Q298.42 11.05 298.01 11.90L298.01 11.90L298.01 11.90Q297.60 12.75 297.04 13.50L297.04 13.50L297.04 13.50Q296.48 14.24 295.83 14.80L295.83 14.80L295.83 14.80Q294.99 15.54 294.04 15.95L294.04 15.95L294.04 15.95Q293.09 16.35 292.21 16.35L292.21 16.35L292.21 16.35Q290.92 16.35 290.24 15.53L290.24 15.53L290.24 15.53Q289.56 14.71 289.56 13.12L289.56 13.12L289.56 13.12Q289.56 12.26 289.75 11.31L289.75 11.31L289.75 11.31Q289.94 10.36 290.28 9.44L290.28 9.44L290.28 9.44Q290.63 8.51 291.10 7.68L291.10 7.68L291.10 7.68Q291.58 6.85 292.14 6.21L292.14 6.21L292.14 6.21Q292.71 5.57 293.36 5.19L293.36 5.19L293.36 5.19Q294.01 4.82 294.70 4.82L294.70 4.82L294.70 4.82Q294.92 4.82 295.12 4.85L295.12 4.85L295.12 4.85Q295.32 4.89 295.54 4.98ZM315.34 5.74L315.34 5.74L315.34 5.74Q315.38 5.98 315.40 6.07L315.40 6.07L315.40 6.07Q315.42 6.16 315.42 6.31L315.42 6.31L315.42 6.31Q315.42 6.78 315.22 7.18L315.22 7.18L315.22 7.18Q315.01 7.57 314.66 7.74L314.66 7.74L314.66 7.74Q314.38 7.36 313.98 7.09L313.98 7.09L313.98 7.09Q313.57 6.82 313.09 6.64L313.09 6.64L313.09 6.64Q312.61 6.47 312.09 6.38L312.09 6.38L312.09 6.38Q311.57 6.30 311.08 6.30L311.08 6.30L311.08 6.30Q310.59 6.30 310.16 6.38L310.16 6.38L310.16 6.38Q309.74 6.45 309.41 6.59L309.41 6.59L309.41 6.59Q309.08 6.72 308.89 6.92L308.89 6.92L308.89 6.92Q308.70 7.11 308.70 7.36L308.70 7.36L308.70 7.36Q308.74 7.67 309.08 7.99L309.08 7.99L309.08 7.99Q309.41 8.30 309.90 8.60L309.90 8.60L309.90 8.60Q310.39 8.90 310.99 9.20L310.99 9.20L310.99 9.20Q311.58 9.49 312.16 9.76L312.16 9.76L312.16 9.76Q312.87 10.09 313.39 10.38L313.39 10.38L313.39 10.38Q313.91 10.67 314.24 11.01L314.24 11.01L314.24 11.01Q314.58 11.35 314.75 11.79L314.75 11.79L314.75 11.79Q314.92 12.22 314.92 12.84L314.92 12.84L314.92 12.84Q314.92 13.55 314.68 14.18L314.68 14.18L314.68 14.18Q314.44 14.80 313.98 15.26L313.98 15.26L313.98 15.26Q313.53 15.72 312.89 15.98L312.89 15.98L312.89 15.98Q312.24 16.24 311.44 16.24L311.44 16.24L311.44 16.24Q310.66 16.24 309.75 16.00L309.75 16.00L309.75 16.00Q308.84 15.76 308.05 15.35L308.05 15.35L308.05 15.35Q307.26 14.94 306.73 14.40L306.73 14.40L306.73 14.40Q306.21 13.86 306.21 13.26L306.21 13.26L306.21 13.26Q306.21 12.98 306.37 12.54L306.37 12.54L306.37 12.54Q306.53 12.11 306.95 11.63L306.95 11.63L306.95 11.63Q306.99 12.05 307.40 12.63L307.40 12.63L307.40 12.63Q307.82 13.20 308.64 13.69L308.64 13.69L308.64 13.69Q309.41 14.14 310.23 14.34L310.23 14.34L310.23 14.34Q311.05 14.55 311.77 14.55L311.77 14.55L311.77 14.55Q312.55 14.55 313.04 14.35L313.04 14.35L313.04 14.35Q313.53 14.15 313.81 13.88L313.81 13.88L313.81 13.88Q314.09 13.61 314.20 13.33L314.20 13.33L314.20 13.33Q314.31 13.05 314.33 12.88L314.33 12.88L314.33 12.88Q314.31 12.60 314.07 12.34L314.07 12.34L314.07 12.34Q313.82 12.08 313.41 11.84L313.41 11.84L313.41 11.84Q313.00 11.59 312.45 11.34L312.45 11.34L312.45 11.34Q311.91 11.09 311.32 10.84L311.32 10.84L311.32 10.84Q310.44 10.44 309.80 10.10L309.80 10.10L309.80 10.10Q309.16 9.76 308.75 9.40L308.75 9.40L308.75 9.40Q308.34 9.04 308.15 8.65L308.15 8.65L308.15 8.65Q307.96 8.26 307.96 7.76L307.96 7.76L307.96 7.76Q307.96 6.97 308.43 6.27L308.43 6.27L308.43 6.27Q308.91 5.57 309.81 5.21L309.81 5.21L309.81 5.21Q310.25 5.01 310.76 4.93L310.76 4.93L310.76 4.93Q311.28 4.84 311.77 4.84L311.77 4.84L311.77 4.84Q312.69 4.84 313.57 5.10L313.57 5.10L313.57 5.10Q314.45 5.35 315.34 5.74ZM323.46 14.38L323.46 14.38L323.46 14.38Q323.46 13.87 323.62 13.07L323.62 13.07L323.62 13.07Q323.78 12.26 324.04 11.33L324.04 11.33L324.04 11.33Q324.30 10.40 324.63 9.43L324.63 9.43L324.63 9.43Q324.97 8.46 325.32 7.60L325.32 7.60L325.32 7.60Q325.67 6.75 326.00 6.10L326.00 6.10L326.00 6.10Q326.34 5.46 326.61 5.18L326.61 5.18L326.61 5.18Q326.75 5.19 326.98 5.29L326.98 5.29L326.98 5.29Q327.21 5.38 327.45 5.50L327.45 5.50L327.45 5.50Q327.68 5.63 327.88 5.78L327.88 5.78L327.88 5.78Q328.08 5.92 328.13 6.05L328.13 6.05L328.13 6.05Q327.73 6.41 327.33 7.15L327.33 7.15L327.33 7.15Q326.93 7.88 326.56 8.82L326.56 8.82L326.56 8.82Q326.19 9.76 325.86 10.80L325.86 10.80L325.86 10.80Q325.54 11.84 325.30 12.82L325.30 12.82L325.30 12.82Q325.07 13.80 324.93 14.64L324.93 14.64L324.93 14.64Q324.80 15.48 324.80 16.00L324.80 16.00L324.80 16.00Q324.80 16.24 324.84 16.30L324.84 16.30L324.84 16.30Q324.53 16.28 324.39 16.19L324.39 16.19L324.39 16.19Q324.25 16.10 324.18 16.00L324.18 16.00L324.18 16.00Q324.10 15.89 324.04 15.79L324.04 15.79L324.04 15.79Q323.97 15.68 323.85 15.62L323.85 15.62L323.85 15.62Q323.75 15.58 323.68 15.43L323.68 15.43L323.68 15.43Q323.61 15.27 323.56 15.09L323.56 15.09L323.56 15.09Q323.51 14.90 323.48 14.70L323.48 14.70L323.48 14.70Q323.46 14.50 323.46 14.38ZM343.57 5.74L343.57 5.74L343.57 5.74Q343.62 5.98 343.64 6.07L343.64 6.07L343.64 6.07Q343.66 6.16 343.66 6.31L343.66 6.31L343.66 6.31Q343.66 6.78 343.45 7.18L343.45 7.18L343.45 7.18Q343.25 7.57 342.90 7.74L342.90 7.74L342.90 7.74Q342.62 7.36 342.22 7.09L342.22 7.09L342.22 7.09Q341.81 6.82 341.33 6.64L341.33 6.64L341.33 6.64Q340.84 6.47 340.33 6.38L340.33 6.38L340.33 6.38Q339.81 6.30 339.32 6.30L339.32 6.30L339.32 6.30Q338.83 6.30 338.40 6.38L338.40 6.38L338.40 6.38Q337.97 6.45 337.64 6.59L337.64 6.59L337.64 6.59Q337.32 6.72 337.13 6.92L337.13 6.92L337.13 6.92Q336.94 7.11 336.94 7.36L336.94 7.36L336.94 7.36Q336.98 7.67 337.32 7.99L337.32 7.99L337.32 7.99Q337.65 8.30 338.14 8.60L338.14 8.60L338.14 8.60Q338.63 8.90 339.23 9.20L339.23 9.20L339.23 9.20Q339.82 9.49 340.40 9.76L340.40 9.76L340.40 9.76Q341.11 10.09 341.63 10.38L341.63 10.38L341.63 10.38Q342.15 10.67 342.48 11.01L342.48 11.01L342.48 11.01Q342.82 11.35 342.99 11.79L342.99 11.79L342.99 11.79Q343.15 12.22 343.15 12.84L343.15 12.84L343.15 12.84Q343.15 13.55 342.92 14.18L342.92 14.18L342.92 14.18Q342.68 14.80 342.22 15.26L342.22 15.26L342.22 15.26Q341.77 15.72 341.12 15.98L341.12 15.98L341.12 15.98Q340.48 16.24 339.68 16.24L339.68 16.24L339.68 16.24Q338.90 16.24 337.99 16.00L337.99 16.00L337.99 16.00Q337.08 15.76 336.29 15.35L336.29 15.35L336.29 15.35Q335.50 14.94 334.97 14.40L334.97 14.40L334.97 14.40Q334.45 13.86 334.45 13.26L334.45 13.26L334.45 13.26Q334.45 12.98 334.61 12.54L334.61 12.54L334.61 12.54Q334.77 12.11 335.19 11.63L335.19 11.63L335.19 11.63Q335.23 12.05 335.64 12.63L335.64 12.63L335.64 12.63Q336.06 13.20 336.88 13.69L336.88 13.69L336.88 13.69Q337.65 14.14 338.47 14.34L338.47 14.34L338.47 14.34Q339.29 14.55 340.00 14.55L340.00 14.55L340.00 14.55Q340.79 14.55 341.28 14.35L341.28 14.35L341.28 14.35Q341.77 14.15 342.05 13.88L342.05 13.88L342.05 13.88Q342.33 13.61 342.44 13.33L342.44 13.33L342.44 13.33Q342.55 13.05 342.57 12.88L342.57 12.88L342.57 12.88Q342.55 12.60 342.31 12.34L342.31 12.34L342.31 12.34Q342.06 12.08 341.65 11.84L341.65 11.84L341.65 11.84Q341.24 11.59 340.69 11.34L340.69 11.34L340.69 11.34Q340.14 11.09 339.56 10.84L339.56 10.84L339.56 10.84Q338.67 10.44 338.04 10.10L338.04 10.10L338.04 10.10Q337.40 9.76 336.99 9.40L336.99 9.40L336.99 9.40Q336.57 9.04 336.38 8.65L336.38 8.65L336.38 8.65Q336.20 8.26 336.20 7.76L336.20 7.76L336.20 7.76Q336.20 6.97 336.67 6.27L336.67 6.27L336.67 6.27Q337.15 5.57 338.04 5.21L338.04 5.21L338.04 5.21Q338.49 5.01 339.00 4.93L339.00 4.93L339.00 4.93Q339.51 4.84 340.00 4.84L340.00 4.84L340.00 4.84Q340.93 4.84 341.81 5.10L341.81 5.10L341.81 5.10Q342.69 5.35 343.57 5.74Z"></path></g></svg>